<?xml version="1.0" encoding="utf-8"?>
<!-- Generator: Adobe Illustrator 22.0.1, SVG Export Plug-In . SVG Version: 6.00 Build 0)  -->
<svg version="1.1" id="Capa_1" xmlns="http://www.w3.org/2000/svg" xmlns:xlink="http://www.w3.org/1999/xlink" x="0px" y="0px"
	 viewBox="0 0 792 612" style="enable-background:new 0 0 792 612;" xml:space="preserve">
<style type="text/css">
	.st0{fill:#1D1D1B;}
</style>
<g>
	<g>
		<path class="st0" d="M60.4,193.5H105v169.8h14.1v38.9H48.6v-38.9h13.5v-131H44.8L60.4,193.5z"/>
		<path class="st0" d="M144.4,193.5H189v169.8h14.1v38.9h-70.5v-38.9h13.5v-131h-17.3L144.4,193.5z"/>
		<path class="st0" d="M216.7,245.6c0-6.1,2.2-11.4,6.6-15.8c4.4-4.4,9.7-6.6,15.8-6.6c6.1,0,11.4,2.2,15.8,6.6
			c4.4,4.4,6.6,9.7,6.6,15.8c0,6.1-2.2,11.4-6.6,15.7c-4.4,4.3-9.7,6.5-15.8,6.5c-6.1,0-11.4-2.2-15.8-6.5
			C218.9,257,216.7,251.8,216.7,245.6z M216.7,353.3c0-6.1,2.2-11.4,6.6-15.8c4.4-4.4,9.7-6.6,15.8-6.6c6.1,0,11.4,2.2,15.8,6.6
			c4.4,4.4,6.6,9.7,6.6,15.8c0,6.1-2.2,11.4-6.6,15.7c-4.4,4.3-9.7,6.5-15.8,6.5c-6.1,0-11.4-2.2-15.8-6.5
			C218.9,364.7,216.7,359.4,216.7,353.3z"/>
		<path class="st0" d="M387.1,372.5c0,4-0.5,7.8-1.4,11.4c-1,3.6-2.6,6.7-4.9,9.4c-2.3,2.7-5.4,4.8-9.2,6.5
			c-3.8,1.6-8.6,2.4-14.4,2.4h-48.4c-5.8,0-10.6-0.8-14.4-2.4c-3.8-1.6-6.9-3.8-9.2-6.5c-2.3-2.7-3.9-5.8-4.9-9.4
			c-1-3.5-1.4-7.3-1.4-11.4v-152c0-8.2,2.3-14.8,6.8-19.7c4.5-4.9,11.7-7.3,21.4-7.3h51.8c9.8,0,16.9,2.4,21.4,7.3
			c4.5,4.9,6.8,11.5,6.8,19.7V372.5z M324.6,230c-2.5,0-3.7,1.3-3.7,4v127.2c0,1.5,0.2,2.6,0.7,3.3c0.5,0.7,1.6,1,3.3,1h15.8
			c1.7,0,2.8-0.3,3.3-1c0.5-0.7,0.7-1.8,0.7-3.3V234.1c0-2.7-1.3-4-3.7-4H324.6z"/>
		<path class="st0" d="M404.3,193.5h39.7l21.3,83.8v-83.8h42.9v208.7h-42.9l-22.5-87.2v87.2h-38.6V193.5z"/>
		<path class="st0" d="M558,402.2c-12.1,0-20.5-2.5-25.3-7.5c-4.8-5-7.2-13.2-7.2-24.8V219.1c0-8.2,2.3-14.6,7.1-19
			c4.7-4.4,10.5-6.6,17.4-6.6h55l7.2,38.9h-40c-2.5,0-3.7,1.3-3.7,4v122.9c0,2.7,1.2,4,3.7,4h40l-7.5,38.9H558z"/>
		<path class="st0" d="M626.6,193.5h81.2l7.2,38.9h-45.5v49.5H704v36h-34.5v45.5h43.8l-7.2,38.9h-79.4V193.5z"/>
	</g>
</g>
</svg>
