<?xml version="1.0" encoding="utf-8"?>
<!-- Generator: Adobe Illustrator 22.0.1, SVG Export Plug-In . SVG Version: 6.00 Build 0)  -->
<svg version="1.1" id="Capa_1" xmlns="http://www.w3.org/2000/svg" xmlns:xlink="http://www.w3.org/1999/xlink" x="0px" y="0px"
	 viewBox="0 0 291 55.7" style="enable-background:new 0 0 291 55.7;" xml:space="preserve">
<style type="text/css">
	.st0{fill:#FFFFFF;}
	.st1{fill:#A66DBC;}
</style>
<g>
	<g>
		<path class="st0" d="M5.2,3.3h8.9v34H17v7.8H2.9v-7.8h2.7V11.1H2.1L5.2,3.3z"/>
		<path class="st0" d="M22.1,3.3H31v34h2.8v7.8H19.7v-7.8h2.7V11.1h-3.5L22.1,3.3z"/>
		<path class="st0" d="M36.5,13.8c0-1.2,0.4-2.3,1.3-3.2c0.9-0.9,1.9-1.3,3.2-1.3c1.2,0,2.3,0.4,3.2,1.3c0.9,0.9,1.3,1.9,1.3,3.2
			c0,1.2-0.4,2.3-1.3,3.1c-0.9,0.9-1.9,1.3-3.2,1.3c-1.2,0-2.3-0.4-3.2-1.3C37,16,36.5,15,36.5,13.8z M36.5,35.3
			c0-1.2,0.4-2.3,1.3-3.2c0.9-0.9,1.9-1.3,3.2-1.3c1.2,0,2.3,0.4,3.2,1.3c0.9,0.9,1.3,1.9,1.3,3.2c0,1.2-0.4,2.3-1.3,3.1
			c-0.9,0.9-1.9,1.3-3.2,1.3c-1.2,0-2.3-0.4-3.2-1.3C37,37.6,36.5,36.6,36.5,35.3z"/>
		<path class="st0" d="M70.7,39.2c0,0.8-0.1,1.6-0.3,2.3c-0.2,0.7-0.5,1.3-1,1.9c-0.5,0.5-1.1,1-1.8,1.3c-0.8,0.3-1.7,0.5-2.9,0.5
			H55c-1.2,0-2.1-0.2-2.9-0.5c-0.8-0.3-1.4-0.8-1.8-1.3c-0.5-0.5-0.8-1.2-1-1.9C49.1,40.7,49,40,49,39.2V8.7c0-1.7,0.5-3,1.4-3.9
			c0.9-1,2.3-1.5,4.3-1.5H65c2,0,3.4,0.5,4.3,1.5c0.9,1,1.4,2.3,1.4,3.9V39.2z M58.2,10.6c-0.5,0-0.7,0.3-0.7,0.8v25.5
			c0,0.3,0,0.5,0.1,0.7c0.1,0.1,0.3,0.2,0.7,0.2h3.2c0.3,0,0.6-0.1,0.7-0.2c0.1-0.1,0.1-0.4,0.1-0.7V11.4c0-0.5-0.3-0.8-0.7-0.8
			H58.2z"/>
		<path class="st0" d="M74.1,3.3h8l4.3,16.8V3.3h8.6v41.8h-8.6l-4.5-17.5v17.5h-7.7V3.3z"/>
		<path class="st0" d="M104.9,45.1c-2.4,0-4.1-0.5-5.1-1.5c-1-1-1.4-2.7-1.4-5V8.4c0-1.7,0.5-2.9,1.4-3.8c0.9-0.9,2.1-1.3,3.5-1.3
			h11l1.4,7.8h-8c-0.5,0-0.7,0.3-0.7,0.8v24.6c0,0.5,0.2,0.8,0.7,0.8h8l-1.5,7.8H104.9z"/>
		<path class="st0" d="M118.6,3.3h16.3l1.4,7.8h-9.1V21h6.9v7.2h-6.9v9.1h8.8l-1.4,7.8h-15.9V3.3z"/>
	</g>
	<g>
		<path class="st1" d="M152.1,43.5c0.6-0.8,1.2-1.4,1.9-1.8c0.7-0.4,1.4-0.7,2.2-1c0.7-0.3,1.5-0.5,2.2-0.7c0.7-0.2,1.5-0.6,2.2-1.2
			c0.4-0.2,1-0.5,1.7-1c0.7-0.4,1.5-0.9,2.2-1.5c0.7-0.5,1.3-1.1,1.9-1.6c0.5-0.5,0.8-1,0.8-1.3c0,0,0-0.1-0.1-0.1
			c-0.1,0-0.1,0-0.1-0.1l-0.1-0.1c-0.2-0.1-0.5-0.2-0.9-0.3c-0.4-0.1-0.6-0.2-0.7-0.2c-4.7-0.5-8.5-1-11.4-1.5
			c-2.9-0.4-5.1-0.9-6.6-1.3c-1.6-0.5-2.6-1-3.1-1.6c-0.5-0.6-0.8-1.4-0.8-2.4c0-0.4,0.1-0.8,0.2-1.2c0.1-0.4,0.3-0.9,0.5-1.3
			c0.2-0.4,0.4-0.8,0.6-1.2c0.2-0.4,0.4-0.7,0.6-0.9c0.6-0.7,1.4-1.4,2.3-2c1-0.6,2-1.1,3.1-1.5c1.1-0.4,2.2-0.8,3.3-1.2
			c1.1-0.3,2.1-0.6,3-0.9c1-0.1,2.1-0.3,3.1-0.7c1-0.4,2.1-0.7,3.1-0.8c0.5,0,0.9,0.2,1.3,0.6c0.3,0.4,0.5,0.8,0.5,1.3
			c0,0.6-0.1,1.1-0.4,1.4c-0.2,0.3-0.5,0.5-0.9,0.7c-0.4,0.2-0.8,0.3-1.3,0.4c-0.5,0.1-1,0.2-1.4,0.3c-0.3,0.1-0.7,0.2-1.2,0.3
			c-0.5,0.1-1,0.3-1.5,0.4c-0.5,0.1-1,0.3-1.4,0.4c-0.4,0.1-0.6,0.2-0.7,0.2c-1.1,0.5-2.2,0.9-3.2,1.3c-1,0.4-1.9,0.9-2.6,1.3
			c-0.7,0.4-1.3,0.9-1.8,1.4c-0.4,0.5-0.6,1-0.6,1.6v0.1c0.4,0.5,1.2,0.9,2.5,1.2c1.3,0.3,2.8,0.5,4.5,0.7c1.7,0.2,3.6,0.4,5.5,0.5
			c1.9,0.2,3.7,0.5,5.3,0.8c1.6,0.4,2.9,0.9,4,1.5c1.1,0.6,1.6,1.5,1.6,2.5c0,0.4-0.1,0.9-0.2,1.4c-0.2,0.5-0.4,1-0.7,1.3
			c-0.9,1-2,2.1-3.3,3.2c-1.3,1.1-2.6,2.1-4.1,3c-1.5,0.9-3,1.7-4.5,2.4c-1.6,0.6-3.1,1-4.6,1.1c-0.5,0-1-0.2-1.4-0.6
			C152.3,44.5,152.1,44,152.1,43.5z"/>
		<path class="st1" d="M179.2,29.4c-0.5,0-1,0.1-1.4,0.4c-0.4,0.3-0.9,0.4-1.4,0.4c-0.1,0-0.3,0-0.6,0c-0.3,0-0.5,0-0.6,0
			c-0.1-0.2-0.3-0.3-0.5-0.4c-0.2-0.1-0.4-0.2-0.5-0.4c-0.2-0.1-0.3-0.3-0.5-0.5c-0.1-0.2-0.2-0.4-0.2-0.8c0-0.5,0.2-1,0.7-1.3
			c0.4-0.3,1-0.6,1.5-0.9c0.6-0.3,1.2-0.5,1.8-0.7s1.1-0.5,1.5-0.8V22c0-2.7-0.1-5.4-0.4-8.1c-0.3-2.7-0.4-5.4-0.4-8.1
			c0-0.7,0.2-1.2,0.5-1.4c0.4-0.2,0.9-0.3,1.5-0.3c0.7,0,1.3,0.2,1.6,0.6c0.3,0.4,0.6,0.9,0.7,1.5c0.1,0.6,0.2,1.2,0.2,1.9
			c0,0.7,0,1.3,0.1,1.7c0,0.5,0,1.3,0.1,2.5c0.1,1.2,0.1,2.5,0.2,3.8c0.1,1.4,0.1,2.6,0.2,3.8c0.1,1.2,0.1,2,0.2,2.5
			c0.1,0,0.4-0.1,0.9-0.3c0.4-0.2,0.9-0.3,1.3-0.5c0.5-0.2,0.9-0.3,1.3-0.5c0.4-0.1,0.7-0.3,0.9-0.3c1-0.4,1.9-0.8,3-1.3
			c1-0.5,2.1-0.7,3.1-0.7c0.7,0,1.3,0.2,1.7,0.7c0.4,0.5,0.6,1.1,0.6,1.7c0,0.5-0.2,0.8-0.5,1c-0.4,0.2-0.7,0.4-1.2,0.6l-10,3.7
			c-0.1,0.1-0.2,0.1-0.3,0.2c-0.1,0.1-0.2,0.1-0.3,0.2v1.8c0,1.3,0,2.6,0.1,4c0.1,1.4,0.2,2.7,0.4,4c0.2,1.1,0.4,2.2,0.6,3.2
			c0.2,1.1,0.3,2.1,0.3,3.2c0,0.3-0.1,0.8-0.3,1.3c-0.2,0.5-0.6,0.8-1,0.8c-1,0-1.8-0.3-2.4-0.9c-0.6-0.6-1-1.4-1-2.4
			c-0.2-1.9-0.4-4-0.6-6.3c-0.2-2.3-0.4-4.4-0.6-6.5H179.2z"/>
		<path class="st1" d="M209,40.2c-0.3,0.5-0.5,1.1-0.8,1.8c-0.3,0.6-0.5,1.2-0.9,1.7c-0.3,0.5-0.7,0.9-1.2,1.3
			c-0.5,0.3-1.1,0.5-1.8,0.5c-1.3,0-2.3-0.3-3.2-1c-0.8-0.6-1.5-1.4-2.1-2.4c-0.5-1-0.9-2-1.1-3.2c-0.2-1.1-0.3-2.2-0.3-3.2
			l0.4-13.3c0-0.3,0-0.5,0.2-0.8c0.2-0.3,0.4-0.5,0.7-0.8c0.3-0.2,0.6-0.4,0.9-0.6c0.3-0.1,0.7-0.2,1-0.2c0.8,0,1.6,0.3,2.1,0.8
			c0.6,0.5,0.9,1.2,0.9,2.1v0.5c-0.4,0.7-0.7,1.5-1,2.6c-0.3,1.1-0.5,2.2-0.7,3.4c-0.2,1.2-0.3,2.5-0.3,3.8c0,1.3,0,2.5,0.1,3.5
			c0.1,1.1,0.3,2,0.6,2.7c0.3,0.8,0.7,1.2,1.2,1.3c0.2,0,0.5-0.1,0.9-0.3c0.4-0.2,0.8-0.5,1.2-1c0.4-0.5,0.9-1.2,1.4-2.2
			c0.5-0.9,0.9-2.2,1.3-3.7c0.4-1.5,0.6-3.4,0.8-5.6c0.2-2.2,0.2-4.8,0.2-7.9c0.1-0.4,0.4-0.6,0.6-0.7c0.3,0,0.6-0.1,0.9-0.1
			c0.3,0,0.6,0,0.8,0c0.2,0,0.5,0.2,0.7,0.4c0.2,0.2,0.4,0.5,0.6,0.8c0.2,0.4,0.3,0.6,0.3,0.6l0.9,24.3c0,0.5-0.1,1-0.4,1.4
			c-0.3,0.4-0.7,0.5-1.3,0.5c-0.2,0-0.4,0-0.7-0.1c-0.3,0-0.5-0.1-0.8-0.2c-0.3-0.1-0.5-0.2-0.7-0.4c-0.2-0.2-0.3-0.4-0.4-0.6
			l-0.9-5.5L209,40.2z"/>
		<path class="st1" d="M231.1,36.8c0,0-0.3,0.4-0.7,1.2c-0.5,0.8-1.1,1.7-1.8,2.6c-0.8,1-1.7,1.8-2.7,2.6c-1,0.8-2.1,1.2-3.3,1.2
			c-1.6,0-3-0.5-4-1.5c-1.1-1-1.6-2.3-1.6-4.1c-0.1-0.9,0-1.9,0.4-3.1c0.3-1.2,0.8-2.5,1.4-3.8c0.6-1.3,1.3-2.6,2.2-3.8
			c0.9-1.2,1.8-2.3,2.8-3.2c1-0.9,2-1.6,3.1-2c1.1-0.4,2.2-0.5,3.3-0.2v-0.8c0-1,0-1.9-0.1-2.9c-0.1-1-0.1-2.2-0.2-3.5
			c-0.1-1.3-0.1-2.8-0.2-4.5c-0.1-1.7-0.1-3.7-0.1-6.1c0.1-0.4,0.3-0.7,0.6-0.8c0.3-0.1,0.6-0.2,0.9-0.2c0.8,0,1.5,0.3,2,0.8
			c0.5,0.5,0.8,1.2,0.9,2c-0.1,1.2-0.1,2.5-0.1,3.8c0,1.3,0.1,2.8,0.2,4.4c0.1,1.6,0.3,3.5,0.5,5.6c0.2,2.1,0.5,4.5,0.9,7.4
			c0.4,2.8,0.8,6.1,1.3,9.8c0.5,3.7,1.1,7.9,1.8,12.8v1.9c0,0.2-0.1,0.4-0.2,0.5c-0.2,0.1-0.4,0.2-0.6,0.2c-0.2,0.1-0.5,0.1-0.7,0.1
			c-0.2,0-0.4,0-0.5,0c-0.5,0-1.1-0.2-1.8-0.5c-0.6-0.3-1-0.7-1.1-1.3l-2-14.6c0-0.1,0-0.2-0.1-0.2
			C231.2,36.8,231.2,36.8,231.1,36.8z M221.4,38c0,0.1,0,0.3,0,0.6c0,0.3,0,0.6,0,0.9c0,0.3,0.1,0.5,0.1,0.8
			c0.1,0.2,0.2,0.3,0.4,0.3c0.9,0,1.9-0.3,2.8-1c1-0.7,1.9-1.6,2.7-2.7c0.8-1.1,1.5-2.2,2-3.5c0.5-1.2,0.8-2.4,0.9-3.3
			c0.1-1-0.2-1.7-0.7-2.3c-0.5-0.5-1.4-0.6-2.7-0.4c-1.6,1.4-2.9,3-3.9,4.8C221.9,33.9,221.4,35.8,221.4,38z"/>
		<path class="st1" d="M239.4,3.4c0-0.3,0.2-0.5,0.6-0.7c0.4-0.2,0.7-0.3,1-0.3c0.5,0,1.2,0.2,1.8,0.5c0.7,0.3,1,0.8,1,1.4
			c0,0.6-0.1,1-0.2,1.3c-0.2,0.2-0.6,0.3-1.2,0.3c-0.7,0-1.3-0.2-2-0.7C239.8,4.7,239.4,4.1,239.4,3.4z M242.5,43.4
			c-0.4-3.7-0.7-6.8-0.9-9.4c-0.3-2.6-0.5-4.8-0.7-6.5c-0.2-1.8-0.3-3.2-0.5-4.2c-0.1-1-0.2-1.8-0.3-2.4c-0.1-0.5-0.1-0.9-0.2-1.1
			c0-0.2-0.1-0.3-0.1-0.3v-0.2c0-0.4,0.2-0.7,0.5-1c0.3-0.3,0.7-0.4,1.1-0.4c0.5,0,1.1,0.1,1.8,0.3c0.6,0.2,1.1,0.6,1.3,1.2
			c0.3,1.8,0.6,3.6,0.7,5.4c0.1,1.8,0.2,3.6,0.3,5.5c0.1,1.8,0.2,3.6,0.4,5.5c0.2,1.8,0.5,3.6,0.9,5.4c0,0.1,0,0.2,0.1,0.4
			c0.1,0.2,0.1,0.5,0.2,0.7c0.1,0.3,0.1,0.5,0.1,0.7c0,0.2,0.1,0.4,0.1,0.4v0.1c0,0,0,0.1,0.1,0.1c0,0.4-0.2,0.9-0.6,1.3
			c-0.4,0.4-0.8,0.6-1.3,0.5c-0.1,0-0.4-0.1-0.8-0.2c-0.4-0.1-0.7-0.2-0.9-0.2c-0.1,0-0.3-0.1-0.4-0.2c-0.2-0.1-0.4-0.3-0.5-0.4
			c-0.2-0.1-0.3-0.3-0.4-0.5C242.4,43.7,242.4,43.5,242.5,43.4z"/>
		<path class="st1" d="M249.6,37l2-14.1c0.1-0.5,0.3-0.8,0.6-1c0.3-0.2,0.7-0.3,1.2-0.3c0.8,0,1.4,0.2,1.9,0.7
			c0.5,0.5,0.9,1,1.2,1.7h0.1c0.4,0,0.8-0.1,1.2-0.2c0.3-0.2,0.8-0.2,1.3-0.2c1.2,0,2.2,0.4,3,1.1c0.8,0.7,1.5,1.6,2,2.7
			c0.5,1,0.9,2.2,1.1,3.4c0.2,1.2,0.4,2.3,0.4,3.2c0,1.1-0.3,2.3-0.9,3.7c-0.6,1.4-1.3,2.6-2.2,3.8s-2,2.2-3.2,3
			c-1.2,0.8-2.4,1.2-3.6,1.2c-1.1,0-2-0.3-2.8-0.8c-0.8-0.5-1.4-1.2-1.9-1.9c-0.5-0.8-0.9-1.7-1.1-2.7c-0.2-1-0.3-2-0.3-2.9V37z
			 M254.2,37.4c0.1,0.4,0.1,0.8,0.2,1.3c0.1,0.5,0.2,0.9,0.3,1.3c0.1,0.4,0.4,0.7,0.6,0.9c0.3,0.2,0.7,0.2,1.2,0
			c0.5-0.4,1-0.9,1.5-1.5c0.5-0.5,1.1-1.1,1.6-1.8c0.5-0.6,0.9-1.3,1.2-2c0.3-0.7,0.5-1.4,0.5-2.2c0.1-1.2,0.1-2.4-0.3-3.4
			c-0.3-1-0.8-1.8-1.4-2.2c-0.6-0.5-1.3-0.5-2.1-0.2c-0.8,0.3-1.5,1.3-2.3,2.8c-0.4,1-0.7,2.1-0.9,3.3c-0.2,1.3-0.2,2.4-0.2,3.5
			V37.4z"/>
		<path class="st1" d="M276.2,43.4c0-0.2,0-0.3,0-0.5c0-0.1,0.1-0.3,0.2-0.4c0.4-0.5,0.9-1.1,1.5-1.7c0.5-0.6,1.1-1.2,1.6-1.8
			c0.5-0.6,1-1.2,1.4-1.9c0.4-0.7,0.8-1.3,1.1-2v-0.3l-7.2,1.5h-0.8c-0.5,0-1.1,0-1.9-0.1c-0.7-0.1-1.5-0.2-2.2-0.5
			c-0.7-0.2-1.3-0.6-1.8-1c-0.5-0.4-0.7-1-0.7-1.8c0-0.8,0.5-1.8,1.3-2.8c0.8-1,1.8-2,3-3c1.1-1,2.3-1.9,3.4-2.7
			c1.2-0.8,2.1-1.5,2.8-2c0.8-0.4,1.7-0.8,2.7-1.1c1.1-0.3,2-0.4,2.9-0.4c0.7,0,1.4,0.1,1.9,0.4c0.5,0.3,0.8,0.8,0.8,1.6
			c0,0.3,0,0.6-0.1,0.9c-0.1,0.3-0.3,0.5-0.7,0.6c-1.2-0.1-2.3,0-3.3,0.2c-1,0.3-2,0.7-2.9,1.2c-0.9,0.5-1.8,1.2-2.6,1.9
			c-0.8,0.7-1.6,1.5-2.4,2.3c-0.2,0.3-0.5,0.6-0.8,1.1c-0.3,0.5-0.5,0.7-0.5,0.8v0.1c1,0,1.9-0.1,2.8-0.3c0.9-0.2,1.9-0.4,2.8-0.6
			c0.9-0.2,1.9-0.4,2.8-0.6c0.9-0.2,1.9-0.3,2.9-0.3c0.4,0,0.8,0,1.2,0.1c0.4,0.1,0.8,0.2,1.2,0.4c0.4,0.2,0.7,0.4,0.9,0.7
			c0.2,0.3,0.4,0.7,0.4,1.2c0,0.7-0.2,1.4-0.5,2c-0.3,0.6-0.9,1.4-1.5,2.3c-0.7,0.9-1.5,2-2.6,3.3c-1,1.3-2.3,2.9-3.7,4.9
			c-0.1,0.1-0.2,0.2-0.5,0.2c-0.3,0-0.5,0.1-0.7,0.1c-0.5,0-1-0.2-1.6-0.7C276.5,44.4,276.2,43.9,276.2,43.4z"/>
	</g>
</g>
</svg>
